<?xml version="1.0" standalone="no"?>
<!DOCTYPE svg PUBLIC "-//W3C//DTD SVG 20010904//EN"
 "http://www.w3.org/TR/2001/REC-SVG-20010904/DTD/svg10.dtd">
<svg version="1.0" xmlns="http://www.w3.org/2000/svg"
 width="526.000000pt" height="526.000000pt" viewBox="0 0 526.000000 526.000000"
 preserveAspectRatio="xMidYMid meet">
<metadata>
Created by potrace 1.11, written by Peter Selinger 2001-2013
</metadata>
<g transform="translate(0.000000,526.000000) scale(0.100000,-0.100000)"
fill="#000000" stroke="none">
<path d="M1850 4520 c-95 -12 -216 -36 -265 -53 l-39 -14 -1 -529 c-1 -291 -5
-570 -10 -620 l-8 -91 -149 -13 c-82 -6 -176 -9 -208 -5 l-58 7 -11 71 c-23
151 -32 272 -41 567 -5 168 -14 346 -20 395 -5 50 -13 118 -16 152 -4 35 -12
67 -18 72 -32 25 -124 31 -422 29 l-311 -3 -6 -194 c-23 -670 18 -2564 70
-3238 l6 -82 59 31 c56 29 62 30 146 24 48 -3 166 -9 262 -12 165 -6 178 -5
233 16 39 15 61 29 67 44 25 66 33 273 27 691 -4 237 -4 462 0 502 l6 72 46 8
c74 13 367 9 384 -5 19 -16 25 -109 37 -594 9 -357 28 -663 46 -722 6 -18 19
-18 333 -13 198 4 354 11 396 19 l70 13 -4 120 c-14 477 -129 3346 -134 3351
-10 11 -387 13 -467 4z m351 -152 c0 -18 28 -749 62 -1624 l62 -1592 -65 -6
c-36 -3 -160 -6 -276 -6 -211 0 -212 0 -218 23 -8 29 -23 367 -37 797 -12 396
-17 453 -45 480 -29 29 -147 44 -329 43 -115 -1 -184 -7 -245 -20 l-85 -19 -7
-44 c-9 -53 -11 -757 -3 -815 7 -44 -11 -402 -20 -427 -10 -26 -90 -29 -315
-12 -118 9 -217 18 -219 20 -7 6 -28 426 -40 794 -21 602 -31 1192 -31 1793
l0 597 48 0 c26 0 121 5 212 10 91 6 184 8 206 4 41 -6 42 -7 48 -52 13 -105
27 -333 36 -602 6 -191 16 -331 30 -425 33 -220 18 -198 141 -212 85 -9 143
-9 314 4 116 9 213 20 216 25 18 27 34 428 34 825 l0 433 51 10 c97 20 179 27
327 29 l147 1 1 -32z"/>
<path d="M3430 4504 c-109 -14 -337 -56 -404 -75 l-38 -11 6 -456 c4 -251 3
-754 -3 -1117 -11 -694 1 -1720 20 -1740 5 -5 98 -12 207 -16 108 -4 292 -13
407 -19 322 -18 661 4 855 55 52 14 142 49 200 77 92 45 116 62 201 147 80 80
103 110 137 182 50 102 79 208 94 346 27 233 -51 437 -268 703 -38 47 -82 102
-97 122 l-28 36 69 134 c84 159 134 282 164 404 19 75 22 115 22 264 0 242
-32 370 -132 530 -151 243 -409 385 -789 435 -141 19 -476 18 -623 -1z m680
-803 c89 -28 150 -69 188 -126 62 -93 63 -150 8 -270 -42 -89 -79 -130 -153
-167 l-68 -33 -181 0 c-100 0 -186 3 -190 7 -4 4 -13 38 -20 75 -11 51 -12
123 -7 291 l6 222 46 15 c68 22 284 14 371 -14z m-71 -1297 c92 -17 148 -44
201 -96 52 -50 77 -104 90 -197 35 -249 -138 -367 -509 -344 l-104 6 -23 51
c-49 108 -52 320 -8 529 l17 78 131 -7 c72 -3 164 -12 205 -20z"/>
</g>
</svg>
